IKResults C03
version=1
nRows=24
nColumns=24
inDegrees=yes

Units are S.I. units (second, meters, Newtons, ...)
If the header above contains a line with 'inDegrees', this indicates whether rotational values are in degrees (yes) or radians (no).

endheader
time	pelvis_tilt	pelvis_list	pelvis_rotation	pelvis_tx	pelvis_ty	pelvis_tz	hip_flexion_r	hip_adduction_r	hip_rotation_r	knee_angle_r	ankle_angle_r	subtalar_angle_r	mtp_angle_r	hip_flexion_l	hip_adduction_l	hip_rotation_l	knee_angle_l	ankle_angle_l	subtalar_angle_l	mtp_angle_l	lumbar_extension	lumbar_bending	lumbar_rotation
     11.08000000	      4.37550871	      3.78803138	    -79.96448476	     -0.15991847	      0.92886256	     -1.57919395	     38.25634679	     -8.85980682	     -3.92954658	    -14.46666815	      7.99978142	    -10.23692749	      0.00000000	     -6.79161033	      6.29061499	      7.39616984	    -15.06363772	     24.84456835	      4.43828354	      0.00000000	    -10.19594121	     -4.32206274	    -10.05644497
     11.09000000	      4.21803606	      4.12801396	    -79.38274667	     -0.16047712	      0.92666250	     -1.56450319	     38.21624579	     -8.88944554	     -3.34759071	    -12.76870350	      8.57338682	     -9.77011445	      0.00000000	     -6.96119770	      5.84414255	      7.45897533	    -15.80306888	     25.49107509	      5.54951270	      0.00000000	     -9.72293506	     -4.04547221	    -11.02147047
     11.10000000	      4.08169619	      4.44073899	    -78.84064322	     -0.16124743	      0.92467874	     -1.54959597	     38.18469394	     -8.89775855	     -2.80806595	    -11.79189691	      8.75277331	     -9.84359919	      0.00000000	     -7.12559101	      5.36509325	      7.41215599	    -16.60944327	     25.50751784	      5.70692900	      0.00000000	     -9.57328509	     -5.13363802	    -11.31041919
     11.11000000	      3.91802048	      4.72791315	    -78.30554910	     -0.16195059	      0.92262005	     -1.53444629	     38.12611244	     -8.89595163	     -2.79420601	    -11.38859194	      9.72362689	    -10.35264908	      0.00000000	     -7.26960872	      4.86743827	      7.56247710	    -17.47810983	     25.64582739	      6.57681888	      0.00000000	     -9.10737194	     -4.96579683	    -12.65206624
     11.12000000	      3.72513976	      4.91857385	    -77.83379306	     -0.16279826	      0.92066660	     -1.51901472	     37.97025124	     -8.82814119	     -3.11032333	    -11.56335926	      9.77588871	    -10.18150744	      0.00000000	     -7.47863658	      4.32533152	      7.84653974	    -18.42273284	     25.84243187	      7.39668511	      0.00000000	     -8.79872117	     -4.69682575	    -13.39993711
     11.13000000	      3.49120095	      4.98618338	    -77.45060383	     -0.16374689	      0.91888157	     -1.50309352	     37.63270047	     -8.64153493	     -3.51367424	    -12.25491545	      9.82558106	    -10.13320764	      0.00000000	     -7.82326744	      3.73716076	      8.20138676	    -19.36992007	     25.82733755	      7.48626296	      0.00000000	     -8.57218903	     -4.35806870	    -13.49755964
     11.14000000	      3.17966126	      5.00231194	    -77.18773422	     -0.16488657	      0.91719899	     -1.48700186	     37.21876961	     -8.29314862	     -4.12016373	    -13.29362128	      9.76251663	     -9.98446460	      0.00000000	     -8.15661030	      3.07150675	      8.48068787	    -20.39662444	     25.75713324	      7.62264456	      0.00000000	     -8.30879352	     -3.93800691	    -13.70214702
     11.15000000	      2.77874816	      5.03434940	    -77.01608508	     -0.16615796	      0.91574402	     -1.47069587	     36.82328423	     -7.82289826	     -5.13182198	    -14.15801709	      9.04093062	     -9.47467994	      0.00000000	     -8.44351861	      2.40794330	      8.88479332	    -21.44156987	     25.29135129	      7.88252255	      0.00000000	     -7.78274386	     -2.30890605	    -11.75962194
     11.16000000	      2.33461095	      5.11766651	    -76.96583048	     -0.16769784	      0.91452911	     -1.45434443	     36.47937721	     -7.23196311	     -6.14246933	    -13.93793311	      7.35770697	     -9.62394443	      0.00000000	     -8.56581016	      1.72818330	      9.05824418	    -22.58434635	     24.79303514	      7.87060131	      0.00000000	     -7.39449979	     -1.81024857	    -11.41944221
     11.17000000	      1.86518755	      5.30359701	    -76.99905314	     -0.16930270	      0.91356154	     -1.43792579	     36.06086982	     -6.58953069	     -6.67131709	    -13.53377595	      4.17536844	    -11.90644205	      0.00000000	     -8.47145475	      1.08157747	      9.13452465	    -23.87912817	     23.76708763	      7.40766161	      0.00000000	     -6.89108706	     -1.26717974	    -11.03890521
     11.18000000	      1.30238973	      5.63206692	    -77.10867043	     -0.17105241	      0.91305304	     -1.42168911	     35.65405412	     -5.79021773	     -6.84000649	    -13.43785607	      2.17256180	    -11.66440717	      0.00000000	     -8.06183333	      0.37281032	      8.92408005	    -25.31625696	     22.61418974	      7.58677300	      0.00000000	     -6.12613443	     -0.70262427	    -10.71353704
     11.19000000	      0.62333544	      5.95874861	    -77.23456992	     -0.17290528	      0.91307629	     -1.40518706	     35.37860974	     -4.88714843	     -6.87744646	    -13.38134534	      0.00895475	    -11.95122663	      0.00000000	     -7.49403904	     -0.46397013	      8.48771720	    -26.88610312	     20.87435327	      7.81874124	      0.00000000	     -5.37858875	      0.04279833	    -10.22836176
     11.20000000	     -0.10627971	      6.11429033	    -77.39397186	     -0.17484262	      0.91367086	     -1.38852971	     35.18389880	     -3.77758728	     -6.12429418	    -14.05128655	     -1.59311710	    -13.53003440	      0.00000000	     -6.93643448	     -1.44440148	      7.83359884	    -28.66941580	     18.56400363	      8.20513422	      0.00000000	     -4.85336631	      0.91867255	     -9.59933270
     11.21000000	     -0.98148974	      6.12257869	    -77.60564892	     -0.17698591	      0.91500516	     -1.37200965	     34.92795869	     -2.43776333	     -5.33806498	    -14.90101884	     -3.81554531	    -17.16763832	      0.00000000	     -6.26315434	     -2.64742025	      7.01043593	    -30.69679538	     16.68557968	      8.26045374	      0.00000000	     -4.47041646	      1.99378740	     -9.10110390
     11.22000000	     -1.87055203	      6.01889205	    -77.88959671	     -0.17926490	      0.91683713	     -1.35573363	     34.57023841	     -1.04322245	     -4.83888248	    -15.84178284	     -4.16165089	    -17.63888405	      0.00000000	     -5.41874526	     -3.91830571	      6.21990337	    -33.09992297	     13.96895651	      9.15685601	      0.00000000	     -4.23487168	      3.08375113	     -8.53589696
     11.23000000	     -2.72642500	      5.80229687	    -78.22569589	     -0.18163107	      0.91891109	     -1.33983359	     34.05095771	      0.35728575	     -4.40002024	    -16.72060540	     -4.48570901	    -18.29230765	      0.00000000	     -4.40752130	     -5.19346988	      5.45894270	    -35.94142481	     11.19224522	      9.99981648	      0.00000000	     -4.27198381	      4.18616313	     -7.86646461
     11.24000000	     -3.53989501	      5.60082986	    -78.57050714	     -0.18405174	      0.92100621	     -1.32437282	     33.49085952	      1.72280288	     -3.93467113	    -17.50565289	     -4.65816999	    -19.01708165	      0.00000000	     -3.08302817	     -6.41092241	      4.83068425	    -39.23455717	      8.21224869	     10.69919591	      0.00000000	     -4.27214566	      5.20579700	     -7.17613250
     11.25000000	     -4.21408690	      5.38782047	    -78.98783362	     -0.18667584	      0.92319244	     -1.30897371	     32.76697424	      3.03817049	     -3.31644137	    -18.04189358	     -4.76234123	    -19.83783195	      0.00000000	     -1.63536061	     -7.43970240	      4.46059362	    -42.66325380	      4.99079465	     11.08387479	      0.00000000	     -4.38086485	      6.04032110	     -6.44326114
     11.26000000	     -4.80912218	      5.16985797	    -79.32204963	     -0.18910738	      0.92535804	     -1.29386383	     31.89023054	      4.21883824	     -2.88172823	    -18.35784119	     -4.57484870	    -20.69227846	      0.00000000	      0.03222828	     -8.34465754	      4.32425173	    -46.31635684	      1.81287223	     11.08325930	      0.00000000	     -4.52426178	      6.77440646	     -5.75274262
     11.27000000	     -5.20240690	      4.93124585	    -79.64533977	     -0.19122372	      0.92767193	     -1.27911385	     31.02385410	      5.13172446	     -2.95859503	    -18.82917522	     -4.12697237	    -21.06702876	      0.00000000	      1.77581263	     -8.89564157	      4.37524595	    -49.96650140	     -1.33204469	     10.48143447	      0.00000000	     -4.79123460	      7.28524740	     -5.06860289
     11.28000000	     -5.45805052	      4.73086067	    -79.93290745	     -0.19327720	      0.92994367	     -1.26466337	     30.15989737	      5.83860372	     -3.26006244	    -19.26255490	     -3.42322558	    -21.02700474	      0.00000000	      3.64064550	     -9.18120853	      4.60927971	    -53.48644658	     -4.70111232	      9.20193572	      0.00000000	     -5.09326921	      7.62601153	     -4.38684701
     11.29000000	     -5.62699232	      4.57307687	    -80.11257304	     -0.19530120	      0.93221401	     -1.25046055	     29.20893099	      6.38444866	     -3.67754855	    -19.46080050	     -2.38569981	    -20.03498721	      0.00000000	      5.62941323	     -9.29818068	      5.01888443	    -56.73629894	     -7.92534633	      5.68783719	      0.00000000	     -5.22003517	      7.79355027	     -3.83089412
     11.30000000	     -5.70108154	      4.42174555	    -80.23108641	     -0.19722127	      0.93437494	     -1.23657422	     28.22900181	      6.79453241	     -4.12554282	    -19.62611285	     -1.19053131	    -19.78532678	      0.00000000	      7.70025951	     -9.28225263	      5.36422813	    -59.78931825	     -9.68710420	      4.61940440	      0.00000000	     -5.59678039	      7.77505896	     -3.26290555
     11.31000000	     -5.72063258	      4.32310871	    -80.22863536	     -0.19882060	      0.93626454	     -1.22286010	     27.26078310	      7.06380134	     -4.79678084	    -19.72336548	     -0.15212547	    -18.87317251	      0.00000000	      9.81131332	     -9.10206637	      5.83707060	    -62.66870760	     -8.92370233	      2.08332595	      0.00000000	     -5.80730959	      7.69751193	     -2.88057953
